<svg width="801" height="680" viewBox="0 0 801 680" fill="none" xmlns="http://www.w3.org/2000/svg">
<path d="M497.511 115H442.358C436.013 115 430.868 120.137 430.868 126.478V143.526L299.377 191.52H232.47C213.462 191.52 198 206.967 198 225.953V277.986C198 296.972 213.462 312.419 232.47 312.419H243.899L265.916 383.898C267.399 388.713 271.854 392 276.898 392H295.282C301.627 392 306.773 386.863 306.773 380.522V315.12L430.866 360.413V377.461C430.866 383.8 436.01 388.939 442.357 388.939H497.509C503.855 388.939 509 383.802 509 377.461V126.477C509.001 120.137 503.857 115 497.511 115ZM283.795 363.873L267.945 312.419H283.795V363.873ZM289.922 289.464H252.387H232.47C226.134 289.464 220.98 284.315 220.98 277.986V225.953C220.98 219.623 226.134 214.475 232.47 214.475H289.92V289.464H289.922ZM430.868 335.971L312.902 292.916V211.022L430.868 167.966V335.971ZM486.022 365.982H453.849V137.955H486.022V365.982Z" fill="black"/>
<path d="M592.488 219H549.512C543.155 219 538 224.147 538 230.5C538 236.852 543.154 242 549.512 242H592.488C598.845 242 604 236.853 604 230.5C603.999 224.147 598.845 219 592.488 219Z" fill="black"/>
<path d="M597.37 119.163C593.357 114.254 586.201 113.592 581.389 117.682L545.083 148.54C540.269 152.63 539.618 159.927 543.631 164.837C545.875 167.583 549.102 169 552.353 169C554.915 169 557.491 168.121 559.609 166.318L595.916 135.461C600.731 131.37 601.382 124.072 597.37 119.163Z" fill="black"/>
<path d="M592.917 347.54L556.611 316.682C551.797 312.59 544.643 313.256 540.63 318.163C536.618 323.074 537.269 330.37 542.083 334.461L578.389 365.318C580.511 367.122 583.085 368 585.645 368C588.896 368 592.123 366.583 594.368 363.837C598.383 358.928 597.73 351.632 592.917 347.54Z" fill="black"/>
<path fill-rule="evenodd" clip-rule="evenodd" d="M24 44.4583C24 33.1653 34.6361 24 47.3665 24H753.633C766.576 24 777 33.1449 777 44.4583V494.542C777 505.835 766.364 515 753.633 515H47.3665C34.4243 515 24 505.855 24 494.542V44.4583Z" stroke="black" stroke-width="47.0588"/>
<path fill-rule="evenodd" clip-rule="evenodd" d="M306.353 514.706H494.588V655.883H306.353V514.706Z" stroke="black" stroke-width="47.0588"/>
<path fill-rule="evenodd" clip-rule="evenodd" d="M235.765 632.353H565.176V679.411H235.765V632.353Z" fill="black"/>
</svg>
