<svg width="801" height="680" viewBox="0 0 801 680" fill="none" xmlns="http://www.w3.org/2000/svg">
<path d="M497.511 115.411H442.358C436.013 115.411 430.868 120.548 430.868 126.889V143.937L299.377 191.931H232.47C213.462 191.931 198 207.378 198 226.364V278.397C198 297.383 213.462 312.83 232.47 312.83H243.899L265.916 384.309C267.399 389.124 271.854 392.411 276.898 392.411H295.282C301.627 392.411 306.773 387.274 306.773 380.933V315.531L430.866 360.824V377.872C430.866 384.212 436.01 389.35 442.357 389.35H497.509C503.855 389.35 509 384.213 509 377.872V126.888C509.001 120.548 503.857 115.411 497.511 115.411ZM283.795 364.284L267.945 312.83H283.795V364.284ZM289.922 289.875H252.387H232.47C226.134 289.875 220.98 284.727 220.98 278.397V226.364C220.98 220.035 226.134 214.886 232.47 214.886H289.92V289.875H289.922ZM430.868 336.383L312.902 293.327V211.433L430.868 168.377V336.383ZM486.022 366.393H453.849V138.366H486.022V366.393Z" fill="#3B434A"/>
<path d="M592.488 219.411H549.512C543.155 219.411 538 224.558 538 230.911C538 237.263 543.154 242.411 549.512 242.411H592.488C598.845 242.411 604 237.264 604 230.911C603.999 224.558 598.845 219.411 592.488 219.411Z" fill="#3B434A"/>
<path d="M597.37 119.574C593.357 114.665 586.201 114.003 581.389 118.093L545.083 148.951C540.269 153.041 539.618 160.338 543.631 165.248C545.875 167.994 549.102 169.411 552.353 169.411C554.915 169.411 557.491 168.532 559.609 166.729L595.916 135.872C600.731 131.781 601.382 124.483 597.37 119.574Z" fill="#3B434A"/>
<path d="M592.917 347.951L556.611 317.093C551.797 313.001 544.643 313.667 540.63 318.574C536.618 323.485 537.269 330.781 542.083 334.872L578.389 365.729C580.511 367.534 583.085 368.411 585.645 368.411C588.896 368.411 592.123 366.994 594.368 364.248C598.383 359.339 597.73 352.043 592.917 347.951Z" fill="#3B434A"/>
<path fill-rule="evenodd" clip-rule="evenodd" d="M24 44.8695C24 33.5765 34.6361 24.4111 47.3665 24.4111H753.633C766.576 24.4111 777 33.556 777 44.8695V494.953C777 506.246 766.364 515.411 753.633 515.411H47.3665C34.4243 515.411 24 506.266 24 494.953V44.8695Z" stroke="#FFB727" stroke-width="47.0588"/>
<path fill-rule="evenodd" clip-rule="evenodd" d="M306.352 515.117H494.587V656.294H306.352V515.117Z" stroke="#FFB727" stroke-width="47.0588"/>
<path fill-rule="evenodd" clip-rule="evenodd" d="M235.766 632.764H565.177V679.822H235.766V632.764Z" fill="#FFB727"/>
</svg>
