<svg width="800" height="800" viewBox="0 0 800 800" fill="none" xmlns="http://www.w3.org/2000/svg">
<path d="M730.801 52.7944H69.1808C31.1338 52.7944 0 83.9554 0 121.971V562.589C0 600.659 31.1655 631.779 69.1808 631.779H371.768V690.746H160.056L131.829 718.974V747.201H668.171V718.974L639.948 690.746H428.223V631.806H730.801C768.898 631.806 799.995 600.654 799.995 562.612V121.971C800 83.9554 768.898 52.7944 730.801 52.7944ZM771.768 477.93C771.768 500.534 753.406 518.897 730.801 518.897H69.1808C46.6034 518.897 28.2319 500.534 28.2319 477.93V121.971C28.2319 99.3933 46.6034 81.0218 69.1808 81.0218H730.806C753.41 81.0218 771.773 99.3933 771.773 121.971V477.93H771.768Z" fill="black"/>
<rect x="118" y="183" width="564" height="15" fill="black"/>
<rect x="118" y="221" width="564" height="15" fill="black"/>
<rect x="118" y="259" width="564" height="15" fill="black"/>
<rect x="118" y="297" width="564" height="15" fill="black"/>
<rect x="118" y="335" width="564" height="15" fill="black"/>
</svg>
