<?xml version="1.0" ?>
<!DOCTYPE svg  PUBLIC '-//W3C//DTD SVG 1.1//EN'  'http://www.w3.org/Graphics/SVG/1.1/DTD/svg11.dtd'>
<!-- Uploaded to: SVG Repo, www.svgrepo.com, Generator: SVG Repo Mixer Tools -->
<svg fill="#000000" width="800px" height="800px" viewBox="0 0 846.66 846.66" style="shape-rendering:geometricPrecision; text-rendering:geometricPrecision; image-rendering:optimizeQuality; fill-rule:evenodd; clip-rule:evenodd" version="1.1" xml:space="preserve" xmlns="http://www.w3.org/2000/svg" xmlns:xlink="http://www.w3.org/1999/xlink">
<defs>
<style type="text/css">
   <![CDATA[
    .fil0 {fill:black;fill-rule:nonzero}
   ]]>
  </style>
</defs>
<g id="Layer_x0020_1">
<path class="fil0" d="M437.8 435.68l346.38 18.23c11.37,0.58 20.11,10.26 19.53,21.63 -10.64,202.14 -177.66,360.72 -380.1,360.72 -210.25,0 -380.69,-170.45 -380.69,-380.69 0,-153.15 92.54,-293.74 237.28,-352.61 10.57,-4.28 22.6,0.81 26.88,11.38l130.72 321.34zm-5.39 41l-218.14 246.01c57.66,45.25 130.35,72.24 209.34,72.24 172.59,0 317.88,-129.58 337.23,-300.97l-328.43 -17.28zm-248.94 218.68l202.97 -228.9 -294.29 -83.82c-5.19,23.63 -7.9,48.06 -7.9,72.93 0,93.62 37.92,178.39 99.22,239.79zm558.25 -306.75c0,27.18 -41.33,27.18 -41.33,0l0 -357.82c0,-27.18 41.33,-27.18 41.33,0l0 357.82zm-107.57 0c0,27.18 -41.33,27.18 -41.33,0l0 -245.86c0,-27.18 41.33,-27.18 41.33,0l0 245.86zm-107.57 0c0,27.18 -41.33,27.18 -41.33,0l0 -147.08c0,-27.18 41.33,-27.18 41.33,0l0 147.08zm-423.14 -45.69l285.08 81.19 -111.68 -274.54c-81.26,38.93 -143.58,108.52 -173.4,193.35z"/>
</g>
</svg>