<svg width="801" height="680" viewBox="0 0 801 680" fill="none" xmlns="http://www.w3.org/2000/svg">
<path fill-rule="evenodd" clip-rule="evenodd" d="M24 44.8695C24 33.5765 34.6361 24.4111 47.3665 24.4111H753.633C766.576 24.4111 777 33.556 777 44.8695V494.953C777 506.246 766.364 515.411 753.633 515.411H47.3665C34.4243 515.411 24 506.266 24 494.953V44.8695Z" stroke="#FFB727" stroke-width="47.0588"/>
<path fill-rule="evenodd" clip-rule="evenodd" d="M306.352 515.117H494.587V656.294H306.352V515.117Z" stroke="#FFB727" stroke-width="47.0588"/>
<path fill-rule="evenodd" clip-rule="evenodd" d="M235.766 632.764H565.177V679.822H235.766V632.764Z" fill="#FFB727"/>
<path d="M405.934 257.95L547.98 265.389C552.642 265.625 556.227 269.575 555.989 274.215C551.625 356.701 483.133 421.411 400.115 421.411C313.895 421.411 244 351.857 244 266.066C244 203.571 281.949 146.202 341.305 122.179C345.64 120.433 350.573 122.51 352.328 126.823L405.934 257.95ZM403.724 274.68L314.268 375.068C337.914 393.532 367.723 404.546 400.115 404.546C470.892 404.546 530.473 351.669 538.408 281.732L403.724 274.68ZM301.637 363.915L384.873 270.51L264.189 236.306C262.06 245.949 260.949 255.918 260.949 266.066C260.949 304.269 276.499 338.86 301.637 363.915ZM530.568 238.742C530.568 249.833 513.619 249.833 513.619 238.742V92.7295C513.619 81.6384 530.568 81.6384 530.568 92.7295V238.742ZM486.455 238.742C486.455 249.833 469.506 249.833 469.506 238.742V138.416C469.506 127.325 486.455 127.325 486.455 138.416V238.742ZM442.342 238.742C442.342 249.833 425.393 249.833 425.393 238.742V178.724C425.393 167.633 442.342 167.633 442.342 178.724V238.742ZM268.818 220.098L385.725 253.228L339.927 141.199C306.604 157.085 281.047 185.482 268.818 220.098Z" fill="#3B434A"/>
</svg>
