<svg width="801" height="680" viewBox="0 0 801 680" fill="none" xmlns="http://www.w3.org/2000/svg">
<path fill-rule="evenodd" clip-rule="evenodd" d="M24 44.4583C24 33.1653 34.6361 24 47.3665 24H753.633C766.576 24 777 33.1449 777 44.4583V494.542C777 505.835 766.364 515 753.633 515H47.3665C34.4243 515 24 505.855 24 494.542V44.4583Z" stroke="black" stroke-width="47.0588"/>
<path fill-rule="evenodd" clip-rule="evenodd" d="M306.353 514.706H494.588V655.883H306.353V514.706Z" stroke="black" stroke-width="47.0588"/>
<path fill-rule="evenodd" clip-rule="evenodd" d="M235.765 632.353H565.176V679.411H235.765V632.353Z" fill="black"/>
<path d="M405.934 257.539L547.98 264.978C552.642 265.214 556.227 269.164 555.989 273.804C551.625 356.29 483.133 421 400.115 421C313.895 421 244 351.446 244 265.655C244 203.16 281.949 145.791 341.305 121.768C345.64 120.022 350.573 122.099 352.328 126.412L405.934 257.539ZM403.724 274.269L314.268 374.656C337.914 393.121 367.723 404.135 400.115 404.135C470.892 404.135 530.473 351.258 538.408 281.32L403.724 274.269ZM301.637 363.504L384.873 270.099L264.189 235.895C262.06 245.537 260.949 255.506 260.949 265.655C260.949 303.858 276.499 338.449 301.637 363.504ZM530.568 238.331C530.568 249.422 513.619 249.422 513.619 238.331V92.3183C513.619 81.2272 530.568 81.2272 530.568 92.3183V238.331ZM486.455 238.331C486.455 249.422 469.506 249.422 469.506 238.331V138.005C469.506 126.914 486.455 126.914 486.455 138.005V238.331ZM442.342 238.331C442.342 249.422 425.393 249.422 425.393 238.331V178.313C425.393 167.222 442.342 167.222 442.342 178.313V238.331ZM268.818 219.687L385.725 252.817L339.927 140.788C306.604 156.674 281.047 185.071 268.818 219.687Z" fill="black"/>
</svg>
