<svg width="801" height="704" viewBox="0 0 801 704" fill="none" xmlns="http://www.w3.org/2000/svg">
<path fill-rule="evenodd" clip-rule="evenodd" d="M24 45.4583C24 33.6133 34.6361 24 47.3665 24H753.633C766.576 24 777 33.5919 777 45.4583V517.542C777 529.387 766.364 539 753.633 539H47.3665C34.4243 539 24 529.408 24 517.542V45.4583Z" stroke="black" stroke-width="47.0588"/>
<path fill-rule="evenodd" clip-rule="evenodd" d="M293 306H504V324H293V306Z" fill="black"/>
<path fill-rule="evenodd" clip-rule="evenodd" d="M293 349H504V367H293V349Z" fill="black"/>
<path fill-rule="evenodd" clip-rule="evenodd" d="M293 392H504V410H293V392Z" fill="black"/>
<path fill-rule="evenodd" clip-rule="evenodd" d="M306.353 538.706H494.588V679.883H306.353V538.706Z" stroke="black" stroke-width="47.0588"/>
<path fill-rule="evenodd" clip-rule="evenodd" d="M235.765 656.353H565.176V703.411H235.765V656.353Z" fill="black"/>
<rect x="245" y="77" width="316" height="408" stroke="black" stroke-width="18"/>
<rect x="302" y="146" width="193" height="118" stroke="black" stroke-width="18"/>
</svg>
