<svg width="801" height="680" viewBox="0 0 801 680" fill="none" xmlns="http://www.w3.org/2000/svg">
<path fill-rule="evenodd" clip-rule="evenodd" d="M24 44.4583C24 33.1653 34.6361 24 47.3665 24H753.633C766.576 24 777 33.1449 777 44.4583V494.542C777 505.835 766.364 515 753.633 515H47.3665C34.4243 515 24 505.855 24 494.542V44.4583Z" stroke="black" stroke-width="47.0588"/>
<path fill-rule="evenodd" clip-rule="evenodd" d="M306.353 514.706H494.588V655.883H306.353V514.706Z" stroke="black" stroke-width="47.0588"/>
<path fill-rule="evenodd" clip-rule="evenodd" d="M235.765 632.353H565.176V679.411H235.765V632.353Z" fill="black"/>
<path d="M272.161 251.839C273.445 251.837 274.706 251.503 275.822 250.869C276.666 250.388 277.408 249.745 278.003 248.976C278.598 248.208 279.036 247.33 279.291 246.392C279.546 245.454 279.613 244.474 279.488 243.51C279.364 242.546 279.05 241.617 278.566 240.774C266.193 219.306 265.178 201.596 272.965 188.155C283.685 169.686 313.264 162.861 352.096 169.897C354.025 170.246 356.013 169.817 357.626 168.704C359.238 167.591 360.345 165.885 360.703 163.958C360.877 163.002 360.86 162.021 360.655 161.072C360.449 160.122 360.058 159.222 359.505 158.424C358.951 157.625 358.245 156.943 357.428 156.417C356.611 155.892 355.699 155.532 354.742 155.359C332.8 151.39 312.647 151.465 296.569 155.584C279.806 159.877 267.253 168.574 260.149 180.751C249.625 198.935 250.602 221.891 265.727 248.118C266.376 249.25 267.313 250.191 268.443 250.844C269.573 251.498 270.856 251.841 272.161 251.839Z" fill="black"/>
<path d="M478.766 168.197C503 168.513 518.312 175.196 525.965 188.388C536.646 206.789 527.859 235.602 502.459 265.452C501.545 266.527 500.959 267.841 500.769 269.239C500.579 270.637 500.794 272.061 501.388 273.34C501.982 274.62 502.93 275.703 504.12 276.46C505.311 277.218 506.693 277.618 508.104 277.614C509.179 277.615 510.24 277.383 511.216 276.934C512.192 276.485 513.059 275.83 513.757 275.013C528.129 258.123 538.074 240.781 542.509 224.868C547.125 208.33 545.839 193.139 538.751 180.984C528.377 163.108 508.585 153.81 478.923 153.419H478.818C476.858 153.407 474.974 154.174 473.58 155.551C472.186 156.929 471.396 158.803 471.384 160.763C471.372 162.723 472.139 164.607 473.516 166.001C474.894 167.395 476.768 168.185 478.728 168.197H478.766Z" fill="black"/>
<path d="M452.351 372.027C450.669 371.024 448.659 370.726 446.758 371.198C444.858 371.669 443.221 372.872 442.203 374.545C429.867 394.954 414.713 406.191 399.529 406.191C378.113 406.191 357.434 384.159 344.106 347.243C343.436 345.402 342.065 343.901 340.292 343.068C338.519 342.234 336.488 342.135 334.643 342.793C333.724 343.116 332.878 343.617 332.154 344.268C331.43 344.918 330.841 345.705 330.422 346.584C330.003 347.463 329.761 348.416 329.712 349.388C329.662 350.36 329.805 351.333 330.132 352.25C337.649 373.124 347.775 390.398 359.449 402.207C371.558 414.49 385.42 421 399.529 421C420.11 421 439.775 407.221 454.891 382.205C455.394 381.372 455.727 380.449 455.871 379.488C456.015 378.526 455.968 377.545 455.732 376.602C455.496 375.659 455.075 374.772 454.495 373.992C453.915 373.212 453.186 372.554 452.351 372.057V372.027Z" fill="black"/>
<path d="M531.451 314.634C527.475 314.614 523.556 315.576 520.041 317.433C516.526 319.291 513.524 321.988 511.3 325.284C509.077 328.58 507.702 332.374 507.296 336.329C506.891 340.284 507.467 344.278 508.975 347.957C477.555 362.615 418.922 351.557 364.748 320.43C340.009 306.223 318.022 288.964 301.154 270.525C299.827 269.083 297.984 268.223 296.027 268.131C294.069 268.04 292.154 268.724 290.698 270.036C289.977 270.688 289.391 271.476 288.976 272.355C288.56 273.234 288.323 274.187 288.278 275.158C288.232 276.13 288.379 277.101 288.711 278.015C289.043 278.929 289.552 279.768 290.21 280.484C308.092 300.029 331.312 318.28 357.359 333.238C387.637 350.625 419.201 362.276 448.637 366.922C457.336 368.334 466.133 369.065 474.946 369.109C492.325 369.109 507.269 365.877 518.928 359.495C522.12 361.445 525.721 362.628 529.447 362.952C533.174 363.276 536.925 362.732 540.406 361.363C543.886 359.993 547.003 357.835 549.509 355.059C552.016 352.283 553.845 348.963 554.853 345.361C555.861 341.759 556.021 337.972 555.319 334.298C554.617 330.624 553.073 327.162 550.809 324.185C548.544 321.208 545.621 318.796 542.267 317.139C538.914 315.482 535.222 314.624 531.481 314.634H531.451ZM531.451 348.205C529.317 348.205 527.246 347.484 525.573 346.16C525.112 345.523 524.554 344.963 523.919 344.499C522.616 342.802 521.925 340.713 521.96 338.574C521.994 336.434 522.751 334.369 524.109 332.714C525.466 331.06 527.343 329.913 529.435 329.461C531.526 329.009 533.709 329.278 535.629 330.224C537.548 331.17 539.091 332.738 540.006 334.673C540.921 336.607 541.154 338.794 540.668 340.878C540.183 342.962 539.006 344.821 537.329 346.151C535.653 347.481 533.576 348.205 531.436 348.205H531.451Z" fill="black"/>
<path d="M268.651 314.673C269.079 298.692 277.979 279.344 293.968 259.679C311.4 238.293 336.582 217.584 364.883 201.31C389.877 186.953 413.894 177.331 438.602 172.062C439.565 171.874 440.482 171.495 441.298 170.949C442.114 170.403 442.813 169.7 443.354 168.88C443.895 168.061 444.267 167.142 444.449 166.177C444.63 165.212 444.618 164.22 444.412 163.26C444.206 162.3 443.811 161.391 443.25 160.585C442.689 159.78 441.973 159.094 441.143 158.568C440.314 158.042 439.388 157.687 438.42 157.524C437.452 157.36 436.461 157.39 435.505 157.614C409.308 163.199 383.803 173.4 357.486 188.501C294.209 224.846 251.971 278.058 253.895 318.665C249.08 321.848 245.556 326.643 243.954 332.188C242.352 337.734 242.777 343.669 245.153 348.93C247.529 354.19 251.701 358.433 256.92 360.898C262.14 363.363 268.067 363.889 273.639 362.382C279.211 360.875 284.064 357.433 287.329 352.673C290.595 347.912 292.058 342.145 291.458 336.404C290.858 330.663 288.233 325.323 284.054 321.341C279.875 317.359 274.414 314.995 268.651 314.673ZM267.305 348.206C265.45 348.193 263.64 347.631 262.104 346.59C260.567 345.549 259.374 344.077 258.673 342.359C257.972 340.641 257.796 338.754 258.166 336.936C258.536 335.118 259.436 333.45 260.753 332.142C262.07 330.835 263.744 329.947 265.565 329.59C267.386 329.233 269.271 329.423 270.984 330.136C272.697 330.849 274.161 332.053 275.19 333.597C276.22 335.141 276.769 336.955 276.769 338.81C276.757 341.31 275.754 343.703 273.98 345.465C272.206 347.226 269.806 348.212 267.305 348.206Z" fill="black"/>
<path d="M399.53 132.56C403.445 132.57 407.305 131.63 410.778 129.822C414.251 128.014 417.234 125.392 419.472 122.179C432.92 130.966 445.03 148.488 453.907 171.881C463.679 197.731 468.821 228.543 468.821 260.987C468.821 288.935 464.92 315.372 457.545 338.862C457.25 339.787 457.142 340.761 457.227 341.727C457.312 342.694 457.589 343.634 458.042 344.492C458.492 345.357 459.109 346.123 459.858 346.748C460.606 347.372 461.471 347.842 462.401 348.131C464.273 348.709 466.298 348.525 468.035 347.618C469.772 346.712 471.081 345.156 471.677 343.29C479.51 318.379 483.652 290.416 483.652 260.987C483.652 225.529 477.811 192.004 466.761 164.018C455.929 136.596 441.106 117.112 423.809 107.521C423.66 102.754 422.111 98.1362 419.354 94.2445C416.597 90.3529 412.755 87.3593 408.307 85.6375C403.859 83.9157 399.003 83.5419 394.345 84.5627C389.686 85.5835 385.431 87.9538 382.111 91.3777C378.791 94.8015 376.553 99.1274 375.676 103.815C374.799 108.503 375.322 113.346 377.18 117.738C379.038 122.131 382.148 125.879 386.123 128.514C390.097 131.15 394.76 132.557 399.53 132.56ZM399.53 98.9888C401.385 99.0022 403.195 99.5646 404.731 100.605C406.268 101.646 407.461 103.118 408.162 104.836C408.863 106.554 409.039 108.441 408.669 110.259C408.299 112.077 407.399 113.745 406.082 115.053C404.765 116.36 403.091 117.248 401.27 117.605C399.45 117.962 397.564 117.772 395.851 117.059C394.138 116.346 392.674 115.142 391.645 113.598C390.615 112.054 390.066 110.241 390.066 108.385C390.078 105.885 391.081 103.492 392.855 101.73C394.629 99.9687 397.03 98.9828 399.53 98.9888Z" fill="black"/>
<path d="M395.62 243.089C391.196 244.037 387.279 246.589 384.626 250.255C381.973 253.92 380.772 258.438 381.254 262.937C381.736 267.436 383.867 271.597 387.236 274.617C390.606 277.637 394.974 279.302 399.499 279.291C400.803 279.29 402.103 279.151 403.378 278.877C405.754 278.395 408.012 277.446 410.019 276.084C412.026 274.723 413.742 272.976 415.069 270.945C416.395 268.915 417.305 266.641 417.745 264.256C418.185 261.871 418.147 259.423 417.634 257.052C417.12 254.682 416.14 252.438 414.752 250.449C413.364 248.46 411.594 246.767 409.546 245.468C407.498 244.169 405.212 243.29 402.822 242.882C400.431 242.473 397.983 242.544 395.62 243.089Z" fill="black"/>
</svg>
