<svg width="801" height="680" viewBox="0 0 801 680" fill="none" xmlns="http://www.w3.org/2000/svg">
<path fill-rule="evenodd" clip-rule="evenodd" d="M24 44.8695C24 33.5765 34.6361 24.4111 47.3665 24.4111H753.633C766.576 24.4111 777 33.556 777 44.8695V494.953C777 506.246 766.364 515.411 753.633 515.411H47.3665C34.4243 515.411 24 506.266 24 494.953V44.8695Z" stroke="#FFB727" stroke-width="47.0588"/>
<path fill-rule="evenodd" clip-rule="evenodd" d="M306.353 515.117H494.588V656.294H306.353V515.117Z" stroke="#FFB727" stroke-width="47.0588"/>
<path fill-rule="evenodd" clip-rule="evenodd" d="M235.765 632.764H565.176V679.822H235.765V632.764Z" fill="#FFB727"/>
<path d="M272.161 252.25C273.445 252.248 274.706 251.914 275.822 251.28C276.666 250.799 277.408 250.156 278.003 249.388C278.598 248.619 279.036 247.741 279.291 246.803C279.546 245.865 279.613 244.886 279.488 243.922C279.364 242.958 279.05 242.028 278.566 241.185C266.193 219.717 265.178 202.007 272.965 188.566C283.685 170.097 313.264 163.272 352.096 170.308C354.025 170.657 356.013 170.228 357.626 169.115C359.238 168.002 360.345 166.296 360.703 164.369C360.877 163.413 360.86 162.432 360.655 161.483C360.449 160.533 360.058 159.633 359.505 158.835C358.951 158.036 358.245 157.354 357.428 156.829C356.611 156.303 355.699 155.943 354.742 155.77C332.8 151.801 312.647 151.876 296.569 155.996C279.806 160.288 267.253 168.985 260.149 181.162C249.625 199.346 250.602 222.303 265.727 248.529C266.376 249.662 267.313 250.602 268.443 251.256C269.573 251.909 270.856 252.252 272.161 252.25Z" fill="#3B434A"/>
<path d="M478.766 168.609C503 168.924 518.312 175.607 525.965 188.799C536.646 207.201 527.859 236.013 502.459 265.863C501.545 266.938 500.959 268.252 500.769 269.65C500.579 271.048 500.794 272.472 501.388 273.751C501.982 275.031 502.93 276.114 504.12 276.871C505.311 277.629 506.693 278.029 508.104 278.025C509.179 278.026 510.24 277.794 511.216 277.345C512.192 276.896 513.059 276.241 513.757 275.424C528.129 258.534 538.074 241.192 542.509 225.279C547.125 208.742 545.839 193.55 538.751 181.395C528.377 163.52 508.585 154.221 478.923 153.83H478.818C476.858 153.818 474.974 154.585 473.58 155.963C472.186 157.34 471.396 159.215 471.384 161.174C471.372 163.134 472.139 165.018 473.516 166.412C474.894 167.807 476.768 168.597 478.728 168.609H478.766Z" fill="#3B434A"/>
<path d="M452.351 372.438C450.669 371.435 448.659 371.137 446.758 371.609C444.858 372.08 443.221 373.283 442.203 374.956C429.867 395.365 414.713 406.603 399.529 406.603C378.113 406.603 357.434 384.57 344.106 347.655C343.436 345.814 342.065 344.312 340.292 343.479C338.519 342.645 336.488 342.546 334.643 343.205C333.724 343.527 332.878 344.028 332.154 344.679C331.43 345.329 330.841 346.116 330.422 346.995C330.003 347.874 329.761 348.827 329.712 349.799C329.662 350.771 329.805 351.744 330.132 352.661C337.649 373.535 347.775 390.809 359.449 402.619C371.558 414.901 385.42 421.411 399.529 421.411C420.11 421.411 439.775 407.632 454.891 382.616C455.394 381.784 455.727 380.86 455.871 379.899C456.015 378.937 455.968 377.957 455.732 377.013C455.496 376.07 455.075 375.183 454.495 374.403C453.915 373.623 453.186 372.965 452.351 372.468V372.438Z" fill="#3B434A"/>
<path d="M531.451 315.045C527.475 315.025 523.556 315.987 520.041 317.844C516.526 319.702 513.524 322.399 511.3 325.695C509.077 328.991 507.702 332.785 507.296 336.74C506.891 340.695 507.467 344.689 508.975 348.368C477.555 363.026 418.922 351.968 364.748 320.841C340.009 306.634 318.022 289.375 301.154 270.936C299.827 269.494 297.984 268.634 296.027 268.542C294.069 268.451 292.154 269.135 290.698 270.447C289.977 271.099 289.391 271.887 288.976 272.766C288.56 273.645 288.323 274.598 288.278 275.57C288.232 276.541 288.379 277.512 288.711 278.426C289.043 279.34 289.552 280.179 290.21 280.896C308.092 300.44 331.312 318.691 357.359 333.65C387.637 351.036 419.201 362.688 448.637 367.333C457.336 368.745 466.133 369.476 474.946 369.52C492.325 369.52 507.269 366.288 518.928 359.906C522.12 361.856 525.721 363.039 529.447 363.363C533.174 363.687 536.925 363.143 540.406 361.774C543.886 360.404 547.003 358.247 549.509 355.47C552.016 352.694 553.845 349.374 554.853 345.772C555.861 342.17 556.021 338.383 555.319 334.709C554.617 331.035 553.073 327.573 550.809 324.596C548.544 321.619 545.621 319.207 542.267 317.55C538.914 315.893 535.222 315.035 531.481 315.045H531.451ZM531.451 348.616C529.317 348.616 527.246 347.895 525.573 346.571C525.112 345.934 524.554 345.374 523.919 344.91C522.616 343.213 521.925 341.124 521.96 338.985C521.994 336.845 522.751 334.78 524.109 333.125C525.466 331.471 527.343 330.324 529.435 329.872C531.526 329.42 533.709 329.689 535.629 330.635C537.548 331.581 539.091 333.149 540.006 335.084C540.921 337.018 541.154 339.205 540.668 341.289C540.183 343.373 539.006 345.232 537.329 346.562C535.653 347.892 533.576 348.616 531.436 348.616H531.451Z" fill="#3B434A"/>
<path d="M268.651 315.084C269.079 299.103 277.979 279.755 293.968 260.09C311.4 238.705 336.582 217.995 364.883 201.721C389.877 187.364 413.894 177.742 438.602 172.473C439.565 172.285 440.482 171.907 441.298 171.36C442.114 170.814 442.813 170.111 443.354 169.291C443.895 168.472 444.267 167.553 444.449 166.588C444.63 165.623 444.618 164.632 444.412 163.671C444.206 162.711 443.811 161.802 443.25 160.996C442.689 160.191 441.973 159.505 441.143 158.979C440.314 158.454 439.388 158.098 438.42 157.935C437.452 157.771 436.461 157.802 435.505 158.025C409.308 163.61 383.803 173.811 357.486 188.912C294.209 225.257 251.971 278.469 253.895 319.076C249.08 322.26 245.556 327.054 243.954 332.599C242.352 338.145 242.777 344.08 245.153 349.341C247.529 354.602 251.701 358.844 256.92 361.309C262.14 363.774 268.067 364.3 273.639 362.793C279.211 361.286 284.064 357.844 287.329 353.084C290.595 348.323 292.058 342.556 291.458 336.815C290.858 331.074 288.233 325.734 284.054 321.752C279.875 317.77 274.414 315.407 268.651 315.084ZM267.305 348.617C265.45 348.604 263.64 348.042 262.104 347.001C260.567 345.961 259.374 344.488 258.673 342.77C257.972 341.052 257.796 339.165 258.166 337.347C258.536 335.529 259.436 333.861 260.753 332.554C262.07 331.246 263.744 330.358 265.565 330.001C267.386 329.644 269.271 329.834 270.984 330.547C272.697 331.26 274.161 332.464 275.19 334.008C276.22 335.552 276.769 337.366 276.769 339.221C276.757 341.721 275.754 344.115 273.98 345.876C272.206 347.638 269.806 348.623 267.305 348.617Z" fill="#3B434A"/>
<path d="M399.53 132.971C403.445 132.981 407.305 132.041 410.778 130.234C414.251 128.426 417.234 125.803 419.472 122.59C432.92 131.377 445.03 148.899 453.907 172.292C463.679 198.143 468.821 228.955 468.821 261.398C468.821 289.346 464.92 315.783 457.545 339.273C457.25 340.198 457.142 341.172 457.227 342.138C457.312 343.105 457.589 344.045 458.042 344.904C458.492 345.768 459.109 346.534 459.858 347.159C460.606 347.783 461.471 348.253 462.401 348.542C464.273 349.12 466.298 348.936 468.035 348.029C469.772 347.123 471.081 345.567 471.677 343.701C479.51 318.79 483.652 290.827 483.652 261.398C483.652 225.94 477.811 192.415 466.761 164.429C455.929 137.007 441.106 117.523 423.809 107.932C423.66 103.165 422.111 98.5473 419.354 94.6557C416.597 90.764 412.755 87.7705 408.307 86.0486C403.859 84.3268 399.003 83.953 394.345 84.9738C389.686 85.9947 385.431 88.3649 382.111 91.7888C378.791 95.2127 376.553 99.5385 375.676 104.226C374.799 108.914 375.322 113.757 377.18 118.149C379.038 122.542 382.148 126.29 386.123 128.926C390.097 131.561 394.76 132.968 399.53 132.971ZM399.53 99.3999C401.385 99.4133 403.195 99.9757 404.731 101.016C406.268 102.057 407.461 103.529 408.162 105.247C408.863 106.965 409.039 108.852 408.669 110.67C408.299 112.489 407.399 114.156 406.082 115.464C404.765 116.771 403.091 117.659 401.27 118.016C399.45 118.374 397.564 118.184 395.851 117.47C394.138 116.757 392.674 115.553 391.645 114.009C390.615 112.466 390.066 110.652 390.066 108.796C390.078 106.296 391.081 103.903 392.855 102.141C394.629 100.38 397.03 99.3939 399.53 99.3999Z" fill="#3B434A"/>
<path d="M395.62 243.5C391.196 244.448 387.279 247.001 384.626 250.666C381.973 254.331 380.772 258.849 381.254 263.348C381.736 267.847 383.867 272.008 387.236 275.028C390.606 278.048 394.974 279.713 399.499 279.702C400.803 279.701 402.103 279.562 403.378 279.288C405.754 278.806 408.012 277.857 410.019 276.495C412.026 275.134 413.742 273.387 415.069 271.356C416.395 269.326 417.305 267.052 417.745 264.667C418.185 262.282 418.147 259.834 417.634 257.463C417.12 255.093 416.14 252.849 414.752 250.86C413.364 248.872 411.594 247.179 409.546 245.88C407.498 244.581 405.212 243.701 402.822 243.293C400.431 242.884 397.983 242.955 395.62 243.5Z" fill="#3B434A"/>
</svg>
