<svg width="801" height="704" viewBox="0 0 801 704" fill="none" xmlns="http://www.w3.org/2000/svg">
<path fill-rule="evenodd" clip-rule="evenodd" d="M24 45.4583C24 33.6133 34.6361 24 47.3665 24H753.633C766.576 24 777 33.5919 777 45.4583V517.542C777 529.387 766.364 539 753.633 539H47.3665C34.4243 539 24 529.408 24 517.542V45.4583Z" stroke="black" stroke-width="47.0588"/>
<path fill-rule="evenodd" clip-rule="evenodd" d="M79 468H722V486H79V468Z" fill="black"/>
<path fill-rule="evenodd" clip-rule="evenodd" d="M161 436H635V454H161V436Z" fill="black"/>
<path fill-rule="evenodd" clip-rule="evenodd" d="M306.353 538.706H494.588V679.883H306.353V538.706Z" stroke="black" stroke-width="47.0588"/>
<path fill-rule="evenodd" clip-rule="evenodd" d="M235.765 656.353H565.176V703.411H235.765V656.353Z" fill="black"/>
<path d="M276.224 311.599C262.719 352.453 255.933 366.071 222 366.071C337.302 413.735 357.662 332.026 357.662 332.026L323.729 297.98C323.729 297.98 289.797 291.24 276.224 311.599ZM567.906 87.1058C558.309 77.4768 541.857 84.4234 541.857 84.4234C517.864 89.2379 384.808 223.218 384.808 223.218L432.313 270.882C432.313 270.882 565.85 137.383 570.648 113.31C570.58 113.242 577.504 96.666 567.906 87.1058ZM337.302 284.431L371.235 318.476L418.74 284.431L371.235 236.768L337.302 284.431Z" fill="black"/>
</svg>
