<svg width="801" height="680" viewBox="0 0 801 680" fill="none" xmlns="http://www.w3.org/2000/svg">
<path fill-rule="evenodd" clip-rule="evenodd" d="M24 44.4583C24 33.1653 34.6361 24 47.3665 24H753.633C766.576 24 777 33.1449 777 44.4583V494.542C777 505.835 766.364 515 753.633 515H47.3665C34.4243 515 24 505.855 24 494.542V44.4583Z" stroke="#FFB727" stroke-width="47.0588"/>
<path fill-rule="evenodd" clip-rule="evenodd" d="M79 444H722V462H79V444Z" fill="#3B434A"/>
<path fill-rule="evenodd" clip-rule="evenodd" d="M161 412H635V430H161V412Z" fill="#3B434A"/>
<path fill-rule="evenodd" clip-rule="evenodd" d="M306.352 514.706H494.587V655.883H306.352V514.706Z" stroke="#FFB727" stroke-width="47.0588"/>
<path fill-rule="evenodd" clip-rule="evenodd" d="M235.766 632.353H565.177V679.411H235.766V632.353Z" fill="#FFB727"/>
<path d="M280.061 304.384C267.095 343.599 260.579 356.67 228 356.67C338.703 402.421 358.251 323.991 358.251 323.991L325.672 291.312C325.672 291.312 293.092 284.843 280.061 304.384ZM560.11 88.9008C550.895 79.6583 535.099 86.3261 535.099 86.3261C512.064 90.9474 384.314 219.551 384.314 219.551L429.925 265.301C429.925 265.301 558.135 137.16 562.742 114.054C562.676 113.988 569.324 98.0774 560.11 88.9008ZM338.703 278.307L371.282 310.986L416.893 278.307L371.282 232.556L338.703 278.307Z" stroke="#3B434A" stroke-width="15"/>
</svg>
