<svg width="801" height="704" viewBox="0 0 801 704" fill="none" xmlns="http://www.w3.org/2000/svg">
<path fill-rule="evenodd" clip-rule="evenodd" d="M24 45.4583C24 33.6133 34.6361 24 47.3665 24H753.633C766.576 24 777 33.5919 777 45.4583V517.542C777 529.387 766.364 539 753.633 539H47.3665C34.4243 539 24 529.408 24 517.542V45.4583Z" stroke="#FFB727" stroke-width="47.0588"/>
<path fill-rule="evenodd" clip-rule="evenodd" d="M306.352 538.706H494.587V679.883H306.352V538.706Z" stroke="#FFB727" stroke-width="47.0588"/>
<path fill-rule="evenodd" clip-rule="evenodd" d="M235.766 656.353H565.177V703.411H235.766V656.353Z" fill="#FFB727"/>
<path d="M311.414 364.989H379.609V380.721H311.414V393.689H525.892V380.721H446.382V364.989H534.815V329.069H311.414V364.989Z" fill="#3B434A"/>
<path d="M252.023 148.859H577.155V278.819H605.014V121H224.164V208.031H252.023V148.859Z" fill="#3B434A"/>
<path d="M157 434.937H302.432V216.773H157V434.937ZM232.785 423.982C228.92 423.982 225.776 420.857 225.776 416.982C225.776 413.116 228.92 409.982 232.785 409.982C236.661 409.982 239.785 413.106 239.785 416.982C239.785 420.857 236.661 423.982 232.785 423.982ZM178.029 237.803H281.423L281.413 398.747H178.029V237.803Z" fill="#3B434A"/>
<path d="M544.689 287.201V440.785H646V287.201H544.689ZM597.403 293.55C598.614 293.55 599.606 294.561 599.606 295.763C599.606 296.975 598.614 297.986 597.403 297.986C596.171 297.986 595.17 296.975 595.17 295.763C595.17 294.551 596.161 293.55 597.403 293.55ZM584.244 300.92H610.511V303.043H584.244V300.92ZM596.522 434.156C593.607 434.156 591.274 431.792 591.274 428.898C591.274 425.994 593.607 423.651 596.522 423.651C599.416 423.651 601.779 425.994 601.779 428.898C601.779 431.782 599.416 434.156 596.522 434.156ZM631.35 416.07C607.637 416.201 571.106 416.291 559.36 416.191V310.594L631.35 310.584V416.07Z" fill="#3B434A"/>
</svg>
