<svg width="801" height="704" viewBox="0 0 801 704" fill="none" xmlns="http://www.w3.org/2000/svg">
<path fill-rule="evenodd" clip-rule="evenodd" d="M24 45.4583C24 33.6133 34.6361 24 47.3665 24H753.633C766.576 24 777 33.5919 777 45.4583V517.542C777 529.387 766.364 539 753.633 539H47.3665C34.4243 539 24 529.408 24 517.542V45.4583Z" stroke="black" stroke-width="47.0588"/>
<path fill-rule="evenodd" clip-rule="evenodd" d="M306.353 538.706H494.588V679.883H306.353V538.706Z" stroke="black" stroke-width="47.0588"/>
<path fill-rule="evenodd" clip-rule="evenodd" d="M235.765 656.353H565.176V703.411H235.765V656.353Z" fill="black"/>
<path d="M311.415 364.989H379.61V380.721H311.415V393.689H525.893V380.721H446.383V364.989H534.816V329.069H311.415V364.989Z" fill="black"/>
<path d="M252.022 148.859H577.154V278.819H605.013V121H224.163V208.031H252.022V148.859Z" fill="black"/>
<path d="M157 434.937H302.432V216.773H157V434.937ZM232.785 423.982C228.92 423.982 225.776 420.857 225.776 416.982C225.776 413.116 228.92 409.982 232.785 409.982C236.661 409.982 239.785 413.106 239.785 416.982C239.785 420.857 236.661 423.982 232.785 423.982ZM178.029 237.803H281.423L281.413 398.747H178.029V237.803Z" fill="black"/>
<path d="M544.688 287.201V440.785H645.999V287.201H544.688ZM597.402 293.55C598.613 293.55 599.605 294.561 599.605 295.763C599.605 296.975 598.613 297.986 597.402 297.986C596.17 297.986 595.169 296.975 595.169 295.763C595.169 294.551 596.16 293.55 597.402 293.55ZM584.243 300.92H610.51V303.043H584.243V300.92ZM596.521 434.156C593.606 434.156 591.273 431.792 591.273 428.898C591.273 425.994 593.606 423.651 596.521 423.651C599.415 423.651 601.778 425.994 601.778 428.898C601.778 431.782 599.415 434.156 596.521 434.156ZM631.349 416.07C607.636 416.201 571.105 416.291 559.359 416.191V310.594L631.349 310.584V416.07Z" fill="black"/>
</svg>
